:SAMPLES-PER-SECOND 30
:FULLY-SPECIFIED
:DEGREES
907
root  80.7724 37.5564 -40.1573 -165.56 1.49834 166.699
RightUpLeg  -49.3258 -23.2059 -9.85472
RightLeg  28.487 -1.89545 -1.34825
RightFoot  8.04494 -0.15501 1.22933
RightToes  -1.16417e-010 0 -3.6325e-017
Spine  33.423 -6.30242 3.40554
Spine1  10.8995 -7.71113 6.40011
HEad  12.4043 -25.7957 -12.8061
LeftShoulder1  9.77252 -11.1998 -56.7802
LeftArm  4.38643 -50.321 -27.1118
LeftForeArm  -69.6259 -34.4708 -11.3249
LeftHand  -0.244104 0.0205437 5.32207
RightShoulder  4.72393 12.6626 22.9094
RightArm  -29.3407 36.2377 19.1244
RightForeArm  -12.5043 8.46216 5.27693
RightHand  -2.73325 8.47236 -21.6117
LeftUpLeg  -8.19554 18.0049 3.68491
LeftLeg  14.2667 12.3871 1.58132
LeftFoot  -3.72456 0.81523 -11.9041
LeftToes  -2.09216e-011 1.96776e-011 -5.83545e-012
908
root  81.5345 37.5892 -40.6057 -163.803 4.58467 167.022
RightUpLeg  -51.6345 -20.4914 -7.92789
RightLeg  28.9519 -2.08751 -1.48611
RightFoot  7.25529 0.0349832 0.0931579
RightToes  -1.16417e-010 0 -3.6325e-017
Spine  34.0253 -5.14083 3.17959
Spine1  11.7129 -6.4715 6.35664
HEad  11.7445 -24.5738 -8.49834
LeftShoulder1  18.5292 -15.2661 -79.6186
LeftArm  -14.7097 -48.8498 8.41461
LeftForeArm  -89.4038 -60.0905 -21.2276
LeftHand  -0.244104 0.0205437 5.32207
RightShoulder  6.2324 15.7875 26.2321
RightArm  -32.5939 40.202 8.53236
RightForeArm  -13.1692 7.89382 5.7394
RightHand  -9.47144 25.2102 -34.9058
LeftUpLeg  -7.82894 18.771 5.04649
LeftLeg  12.2731 17.4767 -0.293249
LeftFoot  -0.810504 0.894799 -9.63455
LeftToes  -2.09216e-011 1.96776e-011 -5.83545e-012
909
root  82.2821 37.6678 -40.9695 -161.902 8.36829 168.137
RightUpLeg  -53.982 -18.9421 -3.85416
RightLeg  28.0791 -0.180982 -0.335944
RightFoot  7.13612 0.395919 -2.13161
RightToes  -1.16417e-010 0 -3.6325e-017
Spine  34.8273 -3.17759 2.70346
Spine1  11.6582 -4.66411 7.14241
HEad  11.3142 -23.0911 -4.54891
LeftShoulder1  23.0205 -16.2191 -88.3807
LeftArm  -10.148 -54.368 21.1973
LeftForeArm  -165.604 -63.4686 -20.6539
LeftHand  -0.244104 0.0205437 5.32207
RightShoulder  7.16728 20.0551 24.1621
RightArm  -36.8691 38.898 3.65018
RightForeArm  -9.4841 9.57925 5.10141
RightHand  -17.6766 36.1943 -46.5758
LeftUpLeg  -7.04458 18.8873 7.35166
LeftLeg  9.67096 23.3309 -3.15225
LeftFoot  2.34364 0.98977 -8.34507
LeftToes  -2.09216e-011 1.96776e-011 -5.83545e-012
910
root  82.7554 37.8057 -41.3077 -160.282 9.61828 167.833
RightUpLeg  -55.273 -18.8032 -2.54153
RightLeg  27.4744 0.671237 0.151425
RightFoot  6.75421 0.508736 -2.89588
RightToes  -1.16417e-010 0 -3.6325e-017
Spine  36.3399 -4.29169 2.99419
Spine1  9.8616 -5.38763 6.21953
HEad  9.20399 -25.9746 -4.00782
LeftShoulder1  13.5601 -17.0805 -57.6083
LeftArm  3.41482 -47.468 -23.7289
LeftForeArm  44.5192 -69.1333 -23.2906
LeftHand  -0.244104 0.0205437 5.32207
RightShoulder  6.16322 20.6465 18.9362
RightArm  -40.7625 42.5128 8.01772
RightForeArm  -4.20785 10.0516 3.8631
RightHand  -23.0667 40.5255 -53.7696
LeftUpLeg  -6.99968 15.4678 7.40493
LeftLeg  6.92102 27.9036 -5.04046
LeftFoot  5.12872 1.09338 -7.75903
LeftToes  -2.09216e-011 1.96776e-011 -5.83545e-012
911
root  82.9162 37.9688 -41.6536 -159.134 7.69022 165.476
RightUpLeg  -56.2058 -21.6195 -3.87658
RightLeg  27.9183 0.799094 0.229508
RightFoot  5.83301 0.395469 -2.35469
RightToes  -1.16417e-010 0 -3.6325e-017
Spine  36.4865 -6.86084 3.82208
Spine1  9.15487 -7.8526 5.9112
HEad  1.31389 -39.7106 -12.5728
LeftShoulder1  16.3958 -16.3588 -68.6334
LeftArm  -10.8537 -49.6236 -5.04793
LeftForeArm  -15.3435 -69.2167 -35.8355
LeftHand  -0.244104 0.0205437 5.32207
RightShoulder  6.44485 21.7884 18.8731
RightArm  -48.7234 45.5404 2.35437
RightForeArm  2.39348 9.77183 1.99144
RightHand  -22.8247 39.2628 -54.5413
LeftUpLeg  -8.21989 10.173 4.56839
LeftLeg  5.27376 28.5673 -4.89717
LeftFoot  7.13896 1.19357 -7.59359
LeftToes  -2.09216e-011 1.96776e-011 -5.83545e-012
912
root  83.1078 38.1002 -41.9741 -157.85 6.71194 163.849
RightUpLeg  -57.3467 -23.9178 -3.96087
RightLeg  27.9611 1.56512 0.670488
RightFoot  5.28714 0.381707 -2.36271
RightToes  -1.16417e-010 0 -3.6325e-017
Spine  34.7268 -8.06677 4.21493
Spine1  10.5788 -9.36923 6.20711
HEad  1.66211 -36.2116 -11.6477
LeftShoulder1  7.81233 -17.36 -31.8396
LeftArm  -6.88214 -50.5625 -56.0366
LeftForeArm  -50.0011 -60.5659 -23.421
LeftHand  -0.244104 0.0205437 5.32207
RightShoulder  6.73399 22.894 18.8552
RightArm  -60.0515 46.5317 -4.37023
RightForeArm  17.1253 9.85783 -2.108
RightHand  -20.3575 32.9699 -56.0302
LeftUpLeg  -9.21861 7.21757 2.43129
LeftLeg  4.5337 26.9497 -4.5654
LeftFoot  8.57383 1.36504 -8.06125
LeftToes  -2.09216e-011 1.96776e-011 -5.83545e-012
913
root  83.4274 38.2325 -42.2829 -157.098 7.86699 163.722
RightUpLeg  -57.275 -22.2352 -4.3157
RightLeg  27.3165 0.983352 0.320957
RightFoot  5.15099 0.400367 -2.51758
RightToes  -1.16417e-010 0 -3.6325e-017
Spine  34.6352 -8.38085 4.10106
Spine1  10.7892 -9.65612 5.61082
HEad  1.4003 -34.6584 -9.08306
LeftShoulder1  7.46679 -17.7834 -28.9868
LeftArm  -11.262 -49.304 -53.7516
LeftForeArm  -33.3737 -64.535 -27.563
LeftHand  -0.244104 0.0205437 5.32207
RightShoulder  5.8835 21.005 17.3412
RightArm  -30.5262 55.1111 3.4161
RightForeArm  -5.70349 5.45605 6.49107
RightHand  -29.3482 39.5404 -67.3482
LeftUpLeg  -8.53501 6.40178 2.01808
LeftLeg  3.33125 26.0927 -5.33125
LeftFoot  9.79904 1.61583 -8.96745
LeftToes  -2.09216e-011 1.96776e-011 -5.83545e-012
914
root  83.7009 38.3611 -42.5757 -156.448 8.82218 163.512
RightUpLeg  -57.2909 -21.0281 -4.62378
RightLeg  26.8493 0.695159 0.152611
RightFoot  5.06424 0.466101 -2.9903
RightToes  -1.16417e-010 0 -3.6325e-017
Spine  34.3493 -8.88433 4.0933
Spine1  10.7546 -9.96258 4.61051
HEad  0.837591 -33.4212 -7.72304
LeftShoulder1  6.0351 -18.7239 -20.6774
LeftArm  -16.6854 -49.8583 -56.5772
LeftForeArm  -48.9784 -61.4478 -24.7937
LeftHand  -0.244104 0.0205437 5.32207
RightShoulder  7.38767 22.4705 21.8874
RightArm  -36.5885 57.0776 -5.35284
RightForeArm  -8.34586 8.04459 7.05113
RightHand  -29.1655 39.5809 -66.6738
LeftUpLeg  -7.64031 5.7822 1.48938
LeftLeg  2.1765 25.9653 -6.14649
LeftFoot  10.5818 1.84387 -9.83957
LeftToes  -2.09216e-011 1.96776e-011 -5.83545e-012
915
root  83.934 38.4847 -42.8423 -155.929 9.39756 163.254
RightUpLeg  -57.2517 -20.3745 -4.76222
RightLeg  26.4395 0.552104 0.069405
RightFoot  4.97636 0.576837 -3.79099
RightToes  -1.16417e-010 0 -3.6325e-017
Spine  33.8375 -9.17722 3.88845
Spine1  10.7159 -10.3206 4.39257
HEad  -0.501349 -32.3909 -7.23468
LeftShoulder1  4.99011 -19.0587 -15.2201
LeftArm  -19.0238 -56.1349 -62.5938
LeftForeArm  -131.158 -47.6084 -12.6924
LeftHand  -0.244104 0.0205437 5.32207
RightShoulder  10.0286 25.0745 28.9919
RightArm  -42.9655 57.281 -19.614
RightForeArm  -14.9006 11.8505 7.41087
RightHand  -25.8422 37.287 -63.1487
LeftUpLeg  -6.6622 5.42399 0.891475
LeftLeg  1.32441 26.1814 -6.85851
LeftFoot  10.8742 2.00975 -10.5544
LeftToes  -2.09216e-011 1.96776e-011 -5.83545e-012
916
root  84.1208 38.5728 -43.0724 -155.477 9.32071 162.731
RightUpLeg  -56.9932 -20.484 -5.13929
RightLeg  25.9579 0.140533 -0.154828
RightFoot  4.71842 0.361988 -2.29096
RightToes  -1.16417e-010 0 -3.6325e-017
Spine  33.0376 -8.98519 3.5773
Spine1  10.1125 -10.401 5.20074
HEad  -1.707 -31.0053 -7.95628
LeftShoulder1  4.58504 -19.3635 -13.0505
LeftArm  -18.5837 -56.934 -65.3149
LeftForeArm  -114.197 -44.064 -11.9687
LeftHand  -0.244104 0.0205437 5.32207
RightShoulder  11.5542 25.9621 32.8903
RightArm  -37.9905 56.4676 -27.4204
RightForeArm  -26.2018 18.529 7.39209
RightHand  -26.8676 38.2142 -64.0178
LeftUpLeg  -6.07952 4.99644 0.0108146
LeftLeg  1.33973 26.3555 -6.95582
LeftFoot  11.2405 2.21576 -11.4134
LeftToes  -2.09216e-011 1.96776e-011 -5.83545e-012
917
root  84.3943 38.5271 -43.3298 -155.57 9.90852 162.638
RightUpLeg  -55.3881 -19.3338 -6.41792
RightLeg  25.0013 -1.69461 -1.06854
RightFoot  4.36582 -1.13753 8.35982
RightToes  -1.16417e-010 0 -3.6325e-017
Spine  31.8978 -6.97111 2.66148
Spine1  10.0476 -8.56153 6.38691
HEad  -3.23067 -31.2702 -13.0946
LeftShoulder1  4.22558 -21.5947 -9.37141
LeftArm  -18.027 -57.4738 -71.4811
LeftForeArm  -53.0393 -37.3543 -11.1164
LeftHand  -0.244104 0.0205437 5.32207
RightShoulder  15.1168 28.9796 40.3456
RightArm  -32.5149 48.1702 -39.8294
RightForeArm  -33.4244 26.5521 6.9898
RightHand  -25.1708 37.6437 -62.4284
LeftUpLeg  -5.26575 5.29602 -0.367878
LeftLeg  2.85073 26.579 -6.55609
LeftFoot  11.8085 2.54337 -12.7286
LeftToes  -2.09216e-011 1.96776e-011 -5.83545e-012
